<svg width="194px" height="196px" viewBox="0 0 194 196" version="1.1" xmlns="http://www.w3.org/2000/svg" xmlns:xlink="http://www.w3.org/1999/xlink">
    <g id="Page-1" stroke="none" stroke-width="1" fill="none" fill-rule="evenodd">
        <g id="512x512" transform="translate(-24, -163)" fill="#8C735B" fill-rule="nonzero">
            <g id="magnifyingglass" transform="translate(24, 163)">
                <path d="M0,79.2741244 C0,122.983703 35.5435206,158.547842 79.2283922,158.547842 C96.5037659,158.547842 112.289624,152.985509 125.295818,143.647138 L174.143517,192.621707 C176.426947,194.907472 179.405775,196 182.582853,196 C189.333508,196 194,190.933069 194,184.277191 C194,181.098279 192.808469,178.217422 190.724306,176.132056 L142.174489,127.256161 C152.400105,113.944404 158.456378,97.3541469 158.456378,79.2741244 C158.456378,35.564037 122.912755,0 79.2283922,0 C35.5435206,0 0,35.564037 0,79.2741244 Z M16.9774908,79.2741244 C16.9774908,44.902103 44.8761996,16.9872906 79.2283922,16.9872906 C113.580788,16.9872906 141.47909,44.902103 141.47909,79.2741244 C141.47909,113.646349 113.580788,141.560755 79.2283922,141.560755 C44.8761996,141.560755 16.9774908,113.646349 16.9774908,79.2741244 Z" id="Shape"></path>
            </g>
        </g>
    </g>
</svg>