<?xml version="1.0" encoding="UTF-8"?>
<svg width="461px" height="197px" viewBox="0 0 461 197" version="1.1" xmlns="http://www.w3.org/2000/svg" xmlns:xlink="http://www.w3.org/1999/xlink">
    <title>Group</title>
    <g id="Page-1" stroke="none" stroke-width="1" fill="none" fill-rule="evenodd">
        <g id="512x512" transform="translate(-24, -163)" fill-rule="nonzero">
            <g id="Group" transform="translate(24, 163)">
                <g id="magnifyingglass" fill="#8C735B">
                    <path d="M0,79.2741244 C0,122.983703 35.5435206,158.547842 79.2283922,158.547842 C96.5037659,158.547842 112.289624,152.985509 125.295818,143.647138 L174.143517,192.621707 C176.426947,194.907472 179.405775,196 182.582853,196 C189.333508,196 194,190.933069 194,184.277191 C194,181.098279 192.808469,178.217422 190.724306,176.132056 L142.174489,127.256161 C152.400105,113.944404 158.456378,97.3541469 158.456378,79.2741244 C158.456378,35.564037 122.912755,0 79.2283922,0 C35.5435206,0 0,35.564037 0,79.2741244 Z M16.9774908,79.2741244 C16.9774908,44.902103 44.8761996,16.9872906 79.2283922,16.9872906 C113.580788,16.9872906 141.47909,44.902103 141.47909,79.2741244 C141.47909,113.646349 113.580788,141.560755 79.2283922,141.560755 C44.8761996,141.560755 16.9774908,113.646349 16.9774908,79.2741244 Z" id="Shape"></path>
                </g>
                <g id="Wiki" transform="translate(212.75, 0.5625)" fill="#8C735B">
                    <polygon id="Path" points="24.3125 91.4375 37.75 91.4375 57.1875 23.4375 57.5 23.4375 76.875 91.4375 90.3125 91.4375 114.6875 1.25 100.125 1.25 83.3125 71.9375 83 71.9375 63.9375 1.25 50.6875 1.25 31.625 71.9375 31.375 71.9375 14.5625 1.25 0 1.25"></polygon>
                    <path d="M131.4375,15.5625 C135.875,15.5625 139.3125,12.0625 139.3125,7.8125 C139.3125,3.5 135.875,0 131.4375,0 C127.0625,0 123.5625,3.5 123.5625,7.8125 C123.5625,12.0625 127.0625,15.5625 131.4375,15.5625 Z M124.6875,91.4375 L138.1875,91.4375 L138.1875,25.6875 L124.6875,25.6875 L124.6875,91.4375 Z" id="Shape"></path>
                    <polygon id="Path" points="152.875 91.4375 166.375 91.4375 166.375 67.75 172 62.1875 194.3125 91.4375 210 91.4375 181.9375 54.0625 208.9375 25.6875 193.0625 25.6875 166.6875 53.75 166.375 53.75 166.375 1.25 152.875 1.25"></polygon>
                    <path d="M224,15.5625 C228.4375,15.5625 231.875,12.0625 231.875,7.8125 C231.875,3.5 228.4375,0 224,0 C219.625,0 216.125,3.5 216.125,7.8125 C216.125,12.0625 219.625,15.5625 224,15.5625 Z M217.25,91.4375 L230.75,91.4375 L230.75,25.6875 L217.25,25.6875 L217.25,91.4375 Z" id="Shape"></path>
                </g>
                <g id="Search" transform="translate(212.7891, 135.8301)" fill="#B79A81" fill-opacity="0.85">
                    <path d="M22.8457031,61.1542969 C36.8730469,61.1542969 45.4042969,54.3046875 45.4042969,43.5175781 L45.4042969,43.4765625 C45.4042969,34.3300781 40.1542969,29.3671875 27.9316406,26.7832031 L21.4511719,25.4296875 C14.0683594,23.8300781 10.7050781,21.1230469 10.7050781,16.6933594 L10.7050781,16.6523438 C10.7050781,11.484375 15.3808594,7.99804688 22.7226562,7.95703125 C29.7363281,7.95703125 34.4941406,11.2792969 35.3144531,16.7753906 L35.3554688,17.3496094 L44.296875,17.3496094 L44.2558594,16.6523438 C43.640625,6.7265625 35.1914062,0 22.8457031,0 C10.3359375,0 1.43554688,6.93164062 1.39453125,17.0214844 L1.39453125,17.0625 C1.39453125,25.8398438 7.01367188,31.171875 18.6210938,33.6328125 L25.0605469,34.9863281 C32.8945312,36.7089844 36.1347656,39.2929688 36.1347656,44.0507812 L36.1347656,44.0917969 C36.1347656,49.6289062 31.1308594,53.1972656 23.2148438,53.1972656 C15.2988281,53.1972656 9.84375,49.7929688 9.0234375,44.3378906 L8.94140625,43.8046875 L0,43.8046875 L0.041015625,44.4199219 C0.779296875,54.8378906 9.55664062,61.1542969 22.8457031,61.1542969 Z" id="Path"></path>
                    <path d="M70.9980469,61.03125 C81.4570312,61.03125 88.1015625,54.796875 89.4960938,47.9472656 L89.578125,47.4960938 L81.1699219,47.4960938 L81.046875,47.8242188 C79.9394531,51.0644531 76.453125,53.7714844 71.203125,53.7714844 C64.1484375,53.7714844 59.6777344,49.0136719 59.5136719,40.8515625 L90.0703125,40.8515625 L90.0703125,37.8574219 C90.0703125,24.8964844 82.6464844,16.2011719 70.546875,16.2011719 C58.4472656,16.2011719 50.6542969,25.2246094 50.6542969,38.71875 L50.6542969,38.7597656 C50.6542969,52.3769531 58.3242188,61.03125 70.9980469,61.03125 Z M70.5878906,23.4609375 C76.3710938,23.4609375 80.5546875,27.1113281 81.2929688,34.5761719 L59.6367188,34.5761719 C60.4160156,27.3574219 64.8457031,23.4609375 70.5878906,23.4609375 Z" id="Shape"></path>
                    <path d="M109.59375,60.9492188 C115.294922,60.9492188 120.298828,57.9960938 122.800781,53.3613281 L122.964844,53.3613281 L122.964844,60.1699219 L131.865234,60.1699219 L131.865234,30.4335938 C131.865234,21.7792969 125.179688,16.2011719 114.638672,16.2011719 C104.015625,16.2011719 97.5761719,21.9023438 96.9609375,29.3261719 L96.9199219,29.7773438 L105.287109,29.7773438 L105.369141,29.4082031 C106.107422,25.9628906 109.265625,23.5429688 114.392578,23.5429688 C119.888672,23.5429688 122.964844,26.4140625 122.964844,31.171875 L122.964844,34.4121094 L111.234375,35.109375 C101.021484,35.7246094 95.1972656,40.3183594 95.1972656,47.8242188 L95.1972656,47.90625 C95.1972656,55.6582031 100.980469,60.9492188 109.59375,60.9492188 Z M104.138672,47.7011719 L104.138672,47.6191406 C104.138672,43.96875 107.091797,41.6308594 112.423828,41.3027344 L122.964844,40.6464844 L122.964844,44.0097656 C122.964844,49.6289062 118.248047,53.8535156 112.013672,53.8535156 C107.255859,53.8535156 104.138672,51.4746094 104.138672,47.7011719 Z" id="Shape"></path>
                    <path d="M140.4375,60.1699219 L149.296875,60.1699219 L149.296875,34.453125 C149.296875,28.0136719 152.824219,24.28125 158.525391,24.28125 C160.248047,24.28125 161.806641,24.4863281 162.503906,24.7734375 L162.503906,16.5292969 C161.806641,16.40625 160.699219,16.2011719 159.427734,16.2011719 C154.505859,16.2011719 150.896484,19.359375 149.501953,24.4042969 L149.296875,24.4042969 L149.296875,17.0214844 L140.4375,17.0214844 L140.4375,60.1699219 Z" id="Path"></path>
                    <path d="M184.693359,61.03125 C195.070312,61.03125 202.289062,54.3867188 203.232422,45.7324219 L203.273438,45.4453125 L194.742188,45.4453125 L194.701172,45.7734375 C193.634766,50.4492188 190.148438,53.6074219 184.693359,53.6074219 C177.84375,53.6074219 173.291016,48.0703125 173.291016,38.6367188 L173.291016,38.5957031 C173.291016,29.3671875 177.761719,23.625 184.652344,23.625 C190.435547,23.625 193.716797,27.1933594 194.660156,31.4179688 L194.742188,31.7460938 L203.191406,31.7460938 L203.150391,31.4589844 C202.412109,23.3378906 195.685547,16.2011719 184.570312,16.2011719 C172.265625,16.2011719 164.226562,24.8554688 164.226562,38.5136719 L164.226562,38.5546875 C164.226562,52.3769531 172.101562,61.03125 184.693359,61.03125 Z" id="Path"></path>
                    <path d="M209.876953,60.1699219 L218.736328,60.1699219 L218.736328,35.1914062 C218.736328,28.4648438 222.796875,23.7890625 228.908203,23.7890625 C235.142578,23.7890625 238.751953,28.0546875 238.751953,35.1914062 L238.751953,60.1699219 L247.611328,60.1699219 L247.611328,33.5097656 C247.611328,23.0917969 241.541016,16.2011719 232.3125,16.2011719 C225.873047,16.2011719 221.238281,19.1132812 218.941406,24.1171875 L218.736328,24.1171875 L218.736328,0.984375 L209.876953,0.984375 L209.876953,60.1699219 Z" id="Path"></path>
                </g>
            </g>
        </g>
    </g>
</svg>